<svg width="18" height="18" viewBox="0 0 18 18" fill="none" xmlns="http://www.w3.org/2000/svg">
<path d="M17.4003 0.613326C17.2769 0.489722 17.1304 0.391658 16.9691 0.32475C16.8078 0.257841 16.6349 0.223401 16.4603 0.223401C16.2857 0.223401 16.1128 0.257841 15.9515 0.32475C15.7902 0.391658 15.6436 0.489722 15.5203 0.613326L9.0003 7.11999L2.4803 0.599993C2.35686 0.47655 2.21031 0.37863 2.04902 0.311824C1.88774 0.245017 1.71487 0.210632 1.5403 0.210632C1.36572 0.210632 1.19286 0.245017 1.03157 0.311824C0.870288 0.37863 0.723741 0.47655 0.600298 0.599993C0.476855 0.723435 0.378935 0.869983 0.312129 1.03127C0.245322 1.19255 0.210937 1.36542 0.210938 1.53999C0.210938 1.71457 0.245322 1.88743 0.312129 2.04872C0.378935 2.21 0.476855 2.35655 0.600298 2.47999L7.1203 8.99999L0.600298 15.52C0.476855 15.6434 0.378935 15.79 0.312129 15.9513C0.245322 16.1126 0.210938 16.2854 0.210938 16.46C0.210937 16.6346 0.245322 16.8074 0.312129 16.9687C0.378935 17.13 0.476855 17.2765 0.600298 17.4C0.723741 17.5234 0.870288 17.6214 1.03157 17.6882C1.19286 17.755 1.36572 17.7894 1.5403 17.7894C1.71487 17.7894 1.88774 17.755 2.04902 17.6882C2.21031 17.6214 2.35686 17.5234 2.4803 17.4L9.0003 10.88L15.5203 17.4C15.6437 17.5234 15.7903 17.6214 15.9516 17.6882C16.1129 17.755 16.2857 17.7894 16.4603 17.7894C16.6349 17.7894 16.8077 17.755 16.969 17.6882C17.1303 17.6214 17.2769 17.5234 17.4003 17.4C17.5237 17.2765 17.6217 17.13 17.6885 16.9687C17.7553 16.8074 17.7897 16.6346 17.7897 16.46C17.7897 16.2854 17.7553 16.1126 17.6885 15.9513C17.6217 15.79 17.5237 15.6434 17.4003 15.52L10.8803 8.99999L17.4003 2.47999C17.907 1.97333 17.907 1.11999 17.4003 0.613326Z" fill="#F05A28"/>
</svg>
