<svg width="22" height="22" viewBox="0 0 22 22" fill="none" xmlns="http://www.w3.org/2000/svg">
<path d="M3.66665 18.3334C3.16248 18.3334 2.73104 18.1541 2.37231 17.7953C2.01359 17.4366 1.83392 17.0049 1.83331 16.5001V5.50008C1.83331 4.99591 2.01298 4.56447 2.37231 4.20575C2.73165 3.84703 3.16309 3.66736 3.66665 3.66675H18.3333C18.8375 3.66675 19.2692 3.84641 19.6286 4.20575C19.9879 4.56508 20.1673 4.99653 20.1666 5.50008V16.5001C20.1666 17.0042 19.9873 17.436 19.6286 17.7953C19.2698 18.1547 18.8381 18.334 18.3333 18.3334H3.66665ZM11 11.9167L18.3333 7.33341V5.50008L11 10.0834L3.66665 5.50008V7.33341L11 11.9167Z" fill="#F2F2F2"/>
</svg>
