<svg width="44" height="60" viewBox="0 0 44 60" fill="none" xmlns="http://www.w3.org/2000/svg">
<path d="M31.7608 44.8343V54.0919L36.1962 55.9379V42.4083C34.803 43.3639 33.317 44.1766 31.7608 44.8343ZM7.80375 42.4083V55.8456L12.2392 53.9995V44.8343C10.683 44.1767 9.19701 43.3639 7.80375 42.4083ZM21.9999 46.8038C19.9055 46.8049 17.8191 46.5443 15.7894 46.0279V60L21.9999 57.4152L28.2105 59.9999V46.0279C26.1807 46.5442 24.0944 46.8049 21.9999 46.8038ZM21.9999 0C10.075 0 0.37326 9.7017 0.37326 21.6268C0.37326 33.5519 10.075 43.2535 21.9999 43.2535C33.9249 43.2535 43.6267 33.5518 43.6267 21.6267C43.6267 9.70158 33.925 0 21.9999 0ZM21.9999 38.6835C12.5461 38.6835 4.85474 30.9922 4.85474 21.5383C4.85474 12.0844 12.5461 4.393 21.9999 4.393C31.4538 4.393 39.1451 12.0844 39.1451 21.5383C39.1451 30.9923 31.4539 38.6835 21.9999 38.6835ZM21.9999 7.94319C14.5037 7.94319 8.40493 14.0418 8.40493 21.5383C8.40493 29.0348 14.5037 35.1332 21.9999 35.1332C29.4962 35.1332 35.595 29.0346 35.595 21.5382C35.595 14.0418 29.4963 7.94319 21.9999 7.94319ZM27.5875 29.4726L21.9999 26.5351L16.4124 29.4726L17.4796 23.2509L12.9592 18.8447L19.2063 17.9368L21.9999 12.276L24.7937 17.9368L31.0408 18.8447L26.5204 23.2509L27.5875 29.4726Z" fill="#F05A28"/>
</svg>
