<svg width="44" height="41" viewBox="0 0 44 41" fill="none" xmlns="http://www.w3.org/2000/svg">
<path d="M38.359 4.55556H2.25641V0H38.359V4.55556ZM28.6338 22.7778H24.8205V26.6272C23.399 28.7911 22.5641 31.365 22.5641 34.1667C22.5641 34.9411 22.6544 35.6928 22.7672 36.4444H2.25641V22.7778H0V18.2222L2.25641 6.83333H38.359L40.6154 18.2222V21.2972C39.1938 20.7961 37.682 20.5 36.1026 20.5C33.3272 20.5 30.7774 21.3428 28.6338 22.7778ZM20.3077 22.7778H6.76923V31.8889H20.3077V22.7778ZM41.3826 26.9689L33.282 35.1461L29.6944 31.5244L27.0769 34.1667L33.282 41L44 30.1806L41.3826 26.9689Z" fill="#F05A28"/>
</svg>
