<svg width="120" height="112" viewBox="0 0 120 112" fill="none" xmlns="http://www.w3.org/2000/svg">
<path d="M51.6672 5.15682L51.6672 25.1793C51.6672 27.896 49.4651 30.0965 46.75 30.0965C37.0617 30.0965 31.7912 40.0326 31.0596 59.6467L46.75 59.6467C49.4647 59.6467 51.6672 61.8502 51.6672 64.5638L51.6672 106.842C51.6672 109.558 49.4651 111.758 46.75 111.758L4.91753 111.758C2.20318 111.758 7.43646e-06 109.556 7.19925e-06 106.842L3.50313e-06 64.5635C2.68122e-06 55.1619 0.949129 46.5345 2.81232 38.915C4.72639 31.104 7.66454 24.2752 11.5432 18.6162C15.5322 12.8007 20.5264 8.23728 26.3783 5.0592C32.2745 1.86082 39.1284 0.237579 46.7521 0.237578C49.4647 0.239638 51.6672 2.44212 51.6672 5.15682ZM115.084 30.0982C117.799 30.0982 120 27.896 120 25.1831L120 5.15648C120 2.44212 117.799 0.241356 115.084 0.241356C107.464 0.241357 100.607 1.86495 94.7142 5.06298C88.8592 8.24072 83.8657 12.8004 79.877 18.6199C75.996 24.279 73.0582 31.1082 71.1441 38.9229C69.2799 46.5424 68.3328 55.1702 68.3328 64.5676L68.3328 106.846C68.3328 109.562 70.5363 111.762 73.25 111.762L115.084 111.762C117.799 111.762 120 109.56 120 106.846L120 64.5676C120 61.8522 117.799 59.6504 115.084 59.6504L99.6138 59.6504C100.336 40.0346 105.531 30.0982 115.084 30.0982Z" fill="white"/>
</svg>
