<svg width="46" height="44" viewBox="0 0 46 44" fill="none" xmlns="http://www.w3.org/2000/svg">
<path d="M23.0358 0C10.3373 0 0 8.91403 0 19.872C0 30.83 10.3373 39.7441 23.0358 39.7441C25.4116 39.7414 27.7757 39.4166 30.0617 38.7789L38.0235 43.7753C38.2408 43.9127 38.4917 43.9901 38.7498 43.9991C39.0079 44.0082 39.2636 43.9486 39.4904 43.8267C39.7171 43.7048 39.9063 43.525 40.0384 43.3062C40.1704 43.0873 40.2402 42.8375 40.2407 42.5829V33.0302C42.0421 31.3264 43.4797 29.2845 44.4687 27.0248C45.4577 24.7651 45.9783 22.3331 45.9996 19.872C46.0716 8.91403 35.7343 0 23.0358 0ZM34.5537 19.872C34.5537 20.2485 34.402 20.6095 34.132 20.8757C33.862 21.1419 33.4958 21.2915 33.114 21.2915H12.9576C12.5758 21.2915 12.2096 21.1419 11.9396 20.8757C11.6696 20.6095 11.5179 20.2485 11.5179 19.872C11.5179 19.4956 11.6696 19.1345 11.9396 18.8683C12.2096 18.6022 12.5758 18.4526 12.9576 18.4526H33.114C33.4958 18.4526 33.862 18.6022 34.132 18.8683C34.402 19.1345 34.5537 19.4956 34.5537 19.872ZM29.8746 26.9692C29.8746 27.3456 29.7229 27.7067 29.4529 27.9729C29.1829 28.2391 28.8167 28.3886 28.4348 28.3886H17.6368C17.2549 28.3886 16.8887 28.2391 16.6187 27.9729C16.3487 27.7067 16.1971 27.3456 16.1971 26.9692C16.1971 26.5927 16.3487 26.2317 16.6187 25.9655C16.8887 25.6993 17.2549 25.5498 17.6368 25.5498H28.4348C28.8167 25.5498 29.1829 25.6993 29.4529 25.9655C29.7229 26.2317 29.8746 26.5927 29.8746 26.9692ZM11.921 12.7749C11.921 12.3984 12.0727 12.0374 12.3427 11.7712C12.6127 11.505 12.9789 11.3554 13.3608 11.3554H32.7108C33.0927 11.3554 33.4589 11.505 33.7289 11.7712C33.9989 12.0374 34.1506 12.3984 34.1506 12.7749C34.1506 13.1513 33.9989 13.5124 33.7289 13.7786C33.4589 14.0448 33.0927 14.1943 32.7108 14.1943H13.3608C12.9789 14.1943 12.6127 14.0448 12.3427 13.7786C12.0727 13.5124 11.921 13.1513 11.921 12.7749Z" fill="#F05A28"/>
</svg>
