<svg width="47" height="42" viewBox="0 0 47 42" fill="none" xmlns="http://www.w3.org/2000/svg">
<path fill-rule="evenodd" clip-rule="evenodd" d="M3.01575e-07 2.09982C3.01575e-07 1.54292 0.225081 1.00882 0.625727 0.615024C1.02637 0.221231 1.56977 0 2.13636 0H25.6364C26.203 0 26.7464 0.221231 27.147 0.615024C27.5476 1.00882 27.7727 1.54292 27.7727 2.09982V12.5989H36.3182C37.7209 12.5989 39.11 12.8705 40.4059 13.3981C41.7019 13.9258 42.8795 14.6991 43.8714 15.6741C44.8633 16.649 45.6501 17.8064 46.1869 19.0802C46.7237 20.354 47 21.7193 47 23.0981V31.4974C47.0006 32.8492 46.5587 34.1654 45.7396 35.2514C44.9206 36.3374 43.7678 37.1356 42.4517 37.5281C42.0599 38.7984 41.2698 39.9147 40.1941 40.7175C39.1185 41.5203 37.8124 41.9686 36.4621 41.9984C35.1119 42.0282 33.7866 41.638 32.6754 40.8835C31.5641 40.1289 30.7239 39.0487 30.2744 37.7968H16.7277C16.2783 39.0487 15.438 40.1289 14.3268 40.8835C13.2156 41.638 11.8903 42.0282 10.54 41.9984C9.18979 41.9686 7.88363 41.5203 6.80801 40.7175C5.73238 39.9147 4.94227 38.7984 4.55046 37.5281C3.23393 37.1359 2.0807 36.3379 1.26124 35.2519C0.441782 34.1658 -0.00042157 32.8495 3.01575e-07 31.4974V23.0981H12.8182C13.3848 23.0981 13.9282 22.8768 14.3288 22.483C14.7295 22.0892 14.9545 21.5551 14.9545 20.9982C14.9545 20.4413 14.7295 19.9072 14.3288 19.5134C13.9282 19.1196 13.3848 18.8984 12.8182 18.8984H3.01575e-07V14.6988H8.54545C9.11205 14.6988 9.65545 14.4775 10.0561 14.0837C10.4567 13.6899 10.6818 13.1559 10.6818 12.5989C10.6818 12.042 10.4567 11.5079 10.0561 11.1141C9.65545 10.7204 9.11205 10.4991 8.54545 10.4991H3.01575e-07V2.09982ZM27.7727 33.5972H30.2744C30.6968 32.4222 31.4642 31.3968 32.4795 30.6506C33.4949 29.9043 34.7126 29.4709 35.9787 29.405C37.2447 29.3392 38.5022 29.6439 39.5921 30.2806C40.6819 30.9173 41.5552 31.8574 42.1013 32.9819C42.502 32.5882 42.7272 32.0542 42.7273 31.4974V23.0981C42.7273 21.4273 42.052 19.825 40.8501 18.6437C39.6482 17.4623 38.018 16.7986 36.3182 16.7986H27.7727V33.5972ZM12.8182 35.697C12.8182 35.1401 12.5931 34.606 12.1925 34.2122C11.7918 33.8184 11.2484 33.5972 10.6818 33.5972C10.1152 33.5972 9.57183 33.8184 9.17118 34.2122C8.77054 34.606 8.54545 35.1401 8.54545 35.697C8.54545 36.2539 8.77054 36.788 9.17118 37.1818C9.57183 37.5756 10.1152 37.7968 10.6818 37.7968C11.2484 37.7968 11.7918 37.5756 12.1925 37.1818C12.5931 36.788 12.8182 36.2539 12.8182 35.697ZM34.8078 34.2124C34.4071 34.6061 34.1819 35.1401 34.1818 35.697C34.1817 36.1828 34.353 36.6536 34.6665 37.0292C34.9799 37.4048 35.4162 37.662 35.901 37.7569C36.3857 37.8517 36.889 37.7785 37.3249 37.5495C37.7608 37.3206 38.1025 36.9502 38.2918 36.5014C38.481 36.0526 38.5061 35.5532 38.3627 35.0883C38.2193 34.6233 37.9163 34.2217 37.5054 33.9517C37.0945 33.6817 36.601 33.5602 36.1091 33.6077C35.6172 33.6553 35.1573 33.869 34.8078 34.2124Z" fill="#F05A28"/>
</svg>
