<svg width="20" height="28" viewBox="0 0 20 28" fill="none" xmlns="http://www.w3.org/2000/svg">
<path d="M10 0.875C4.83086 0.875 0.625 4.89746 0.625 9.83984C0.625 12.1936 1.69785 15.3236 3.81367 19.1434C5.51289 22.2102 7.47871 24.9834 8.50117 26.3633C8.67394 26.5991 8.89984 26.7908 9.16056 26.923C9.42127 27.0551 9.70946 27.124 10.0018 27.124C10.2941 27.124 10.5822 27.0551 10.843 26.923C11.1037 26.7908 11.3296 26.5991 11.5023 26.3633C12.523 24.9834 14.4906 22.2102 16.1898 19.1434C18.3021 15.3248 19.375 12.1947 19.375 9.83984C19.375 4.89746 15.1691 0.875 10 0.875ZM10 14C9.25832 14 8.5333 13.7801 7.91661 13.368C7.29993 12.956 6.81928 12.3703 6.53545 11.6851C6.25162 10.9998 6.17736 10.2458 6.32205 9.51841C6.46675 8.79098 6.8239 8.1228 7.34835 7.59835C7.8728 7.0739 8.54098 6.71675 9.26841 6.57205C9.99584 6.42736 10.7498 6.50162 11.4351 6.78545C12.1203 7.06928 12.706 7.54993 13.118 8.16661C13.5301 8.7833 13.75 9.50832 13.75 10.25C13.7489 11.2442 13.3535 12.1974 12.6505 12.9005C11.9474 13.6035 10.9942 13.9989 10 14Z" fill="#F2F2F2"/>
</svg>
