<svg width="22" height="22" viewBox="0 0 22 22" fill="none" xmlns="http://www.w3.org/2000/svg">
<g clip-path="url(#clip0_214_601)">
<path d="M19.25 15.0517V18.293C19.2501 18.5251 19.1622 18.7486 19.004 18.9183C18.8457 19.0881 18.629 19.1916 18.3975 19.2078C17.9972 19.2359 17.6703 19.25 17.4167 19.25C9.31608 19.25 2.75 12.6839 2.75 4.58333C2.75 4.33033 2.76406 4.00339 2.79217 3.6025C2.80841 3.37099 2.91187 3.15426 3.08165 2.99604C3.25144 2.83782 3.47492 2.7499 3.707 2.75H6.94833C7.06204 2.74989 7.17172 2.79204 7.25608 2.86827C7.34045 2.9445 7.39346 3.04937 7.40483 3.1625C7.42561 3.37272 7.44517 3.54139 7.4635 3.6685C7.64566 4.93985 8.01899 6.17635 8.57083 7.33608C8.65792 7.51942 8.60108 7.7385 8.43608 7.85583L6.45792 9.26933C7.66765 12.0874 9.9135 14.3333 12.7316 15.543L14.1433 13.5685C14.2007 13.4875 14.2849 13.4295 14.381 13.4045C14.4771 13.3795 14.5789 13.3892 14.6685 13.4319C15.8281 13.9827 17.0643 14.3551 18.3352 14.5365C18.4623 14.5548 18.6303 14.5744 18.8393 14.5952C18.9523 14.6067 19.0569 14.6599 19.133 14.7442C19.209 14.8285 19.2501 14.9381 19.25 15.0517Z" fill="#F2F2F2"/>
</g>
<defs>
<clipPath id="clip0_214_601">
<rect width="22" height="22" fill="white"/>
</clipPath>
</defs>
</svg>
