<svg width="44" height="44" viewBox="0 0 44 44" fill="none" xmlns="http://www.w3.org/2000/svg">
<path fill-rule="evenodd" clip-rule="evenodd" d="M12.8987 6.00207L8.87266 10.028C2.95683 15.9459 3.8147e-06 18.9027 3.8147e-06 22.5767C3.8147e-06 26.2528 2.95683 29.2096 8.87266 35.1253C14.7907 41.0432 17.7475 44 21.4237 44C25.0978 44 28.0568 41.0432 33.9726 35.1275L37.9987 31.1016C41.3977 27.7004 43.0983 26.002 43.7297 23.7954C44.3633 21.5889 43.8221 19.2459 42.7397 14.5622L42.1171 11.8606C41.2085 7.91824 40.7531 5.94707 39.4045 4.59628C38.0559 3.2455 36.0824 2.79231 32.14 1.88372L29.4384 1.25892C24.7524 0.178738 22.4116 -0.362456 20.2049 0.268936C17.9983 0.902529 16.2977 2.60311 12.8987 6.00207ZM23.879 27.1218C25.3596 25.6434 25.3486 23.5182 24.462 21.8353C24.6815 21.5182 24.783 21.1343 24.7489 20.7503C24.7148 20.3662 24.5473 20.0062 24.2754 19.7327C24.0036 19.4593 23.6445 19.2897 23.2606 19.2534C22.8767 19.2171 22.4922 19.3164 22.174 19.5341C21.4259 19.1381 20.6053 18.9269 19.7869 18.9357C19.3493 18.9398 18.9313 19.1175 18.6247 19.4299C18.3182 19.7422 18.1482 20.1635 18.1523 20.6011C18.1564 21.0387 18.3342 21.4567 18.6465 21.7633C18.9588 22.0698 19.3801 22.2397 19.8177 22.2357C20.3272 22.2545 20.8086 22.4735 21.1575 22.8451C22.0089 23.6964 21.7867 24.55 21.5469 24.7898C21.3049 25.0296 20.4535 25.2518 19.6021 24.4004C17.8773 22.6757 14.8985 22.1037 12.9911 24.011C11.5105 25.4916 11.5215 27.6168 12.4081 29.2998C12.19 29.6169 12.0896 30.0002 12.1243 30.3835C12.159 30.7668 12.3265 31.1259 12.598 31.3987C12.8695 31.6715 13.2278 31.8408 13.611 31.8774C13.9941 31.9139 14.378 31.8153 14.6961 31.5988C15.6833 32.1404 16.8285 32.3209 17.9345 32.1091C18.3634 32.021 18.7397 31.7662 18.9806 31.4006C19.2216 31.0351 19.3074 30.5888 19.2193 30.16C19.1312 29.7311 18.8764 29.3548 18.5108 29.1139C18.1453 28.8729 17.699 28.7871 17.2701 28.8752C16.8807 28.9566 16.2515 28.829 15.7125 28.29C14.8611 27.4364 15.0833 26.585 15.3231 26.3452C15.5651 26.1054 16.4165 25.8832 17.2679 26.7346C18.9927 28.4594 21.9715 29.0314 23.879 27.1218ZM26.3562 18.2449C25.9477 17.8363 25.6236 17.3511 25.4026 16.8173C25.1816 16.2834 25.0679 15.7112 25.068 15.1334C25.0681 14.5556 25.182 13.9834 25.4032 13.4496C25.6244 12.9158 25.9486 12.4308 26.3573 12.0223C26.7659 11.6138 27.2511 11.2898 27.785 11.0687C28.3188 10.8477 28.891 10.734 29.4689 10.7341C30.0467 10.7342 30.6189 10.8481 31.1527 11.0693C31.6865 11.2905 32.1715 11.6147 32.58 12.0234C33.4051 12.8487 33.8684 13.968 33.8682 15.1349C33.868 16.3019 33.4043 17.421 32.5789 18.246C31.7536 19.071 30.6343 19.5344 29.4673 19.5342C28.3003 19.534 27.1812 19.0702 26.3562 18.2449Z" fill="#F05A28"/>
</svg>
